<svg xmlns="http://www.w3.org/2000/svg" width="430" height="430" style="width:100%;height:100%;transform:translate3d(0,0,0);content-visibility:visible" viewBox="0 0 430 430"><defs><clipPath id="e"><path d="M0 0h430v430H0z"/></clipPath><clipPath id="g"><path d="M0 0h430v430H0z"/></clipPath><clipPath id="f"><path d="M0 0h430v430H0z"/></clipPath><filter id="a" width="100%" height="100%" x="0%" y="0%" filterUnits="objectBoundingBox"><feComponentTransfer in="SourceGraphic"><feFuncA tableValues="1.0 0.0" type="table"/></feComponentTransfer></filter><filter id="c" width="100%" height="100%" x="0%" y="0%" filterUnits="objectBoundingBox"><feComponentTransfer in="SourceGraphic"><feFuncA tableValues="1.0 0.0" type="table"/></feComponentTransfer></filter><path id="b" style="display:none"/><path id="d" style="display:none"/><mask id="i" mask-type="alpha"><g filter="url(#a)"><path fill="#fff" d="M0 0h430v430H0z" opacity="0"/><use xmlns:ns1="http://www.w3.org/1999/xlink" ns1:href="#b"/></g></mask><mask id="h" mask-type="alpha"><g filter="url(#c)"><path fill="#fff" d="M0 0h430v430H0z" opacity="0"/><use xmlns:ns2="http://www.w3.org/1999/xlink" ns2:href="#d"/></g></mask></defs><g clip-path="url(#e)"><g clip-path="url(#f)" style="display:block"><g fill="#2CA58D" style="display:none"><path d="M326.261 155.294c-17.84 20.16-39.98 32.83-60.67 36.56v.01c-.13.02-.26.05-.39.07-.41.07-.81.14-1.21.2-.54.09-1.07.17-1.6.24-.25.04-.51.07-.77.1-.56.08-1.11.14-1.67.2-.07.01-.14.02-.22.02-3.9.39-7.72.45-11.43.17-.39-.03-.78-.06-1.17-.1-1.16-.12-2.29-.26-3.42-.44-7.19-25.04 2.29-58.89 26.66-86.44v-.01q3.015-3.42 6.21-6.54c20.85-20.55 46.27-31.6 68.23-31.18.32.01.64.02.97.02.46.02.92.04 1.38.07.39.02.78.05 1.17.08.33.02.65.05.98.08.54.05 1.08.11 1.61.18.66.09 1.25.38 1.69.82.41.39.7.89.84 1.46 6.14 24.82-3.47 57.61-27.19 84.43" class="secondary"/><path d="M55.622-61.19c-20.56 3.83-42.52 16.46-60.23 36.48-24.22 27.38-33.73 60.98-26.79 85.97v.01c-.13.02-.26.05-.39.07-.41.07-.81.14-1.21.2-.54.09-1.07.17-1.6.24-.25.04-.51.07-.77.1-.56.08-1.11.14-1.67.2-.07.01-.14.02-.22.02-3.89.4-7.72.46-11.43.17-.39-.03-.78-.06-1.17-.1a55 55 0 0 1-3.42-.43v-.01c-7.19-25.04 2.29-58.89 26.66-86.44v-.01q3.03-3.42 6.21-6.54c20.86-20.55 46.27-31.59 68.23-31.18.32.01.64.02.97.02.46.02.92.04 1.38.07.39.02.78.05 1.17.08.33.02.65.05.98.08.54.05 1.08.11 1.61.18.66.09 1.25.38 1.69.82" class="secondary" opacity=".5" style="mix-blend-mode:multiply" transform="translate(296.989 130.594)"/></g><path fill="none" stroke="#121331" stroke-linecap="round" stroke-linejoin="round" stroke-width="7" d="M27.941 24.71C3.572 52.265-28.87 65.812-54.601 61.74c-7.188-25.04 2.291-58.895 26.66-86.45C-3.572-52.266 28.87-65.812 54.601-61.74c7.188 25.04-2.291 58.894-26.66 86.45" class="primary" style="display:none" transform="translate(297.685 131.231)"/><g fill="#2CA58D" style="display:none"><path d="M184.016 206.225c-.05.42-.1.83-.17 1.24-.32.09-.64.18-.96.25-.02.01-.04.01-.06.02-.16.05-.33.09-.49.13-.49.12-.99.24-1.49.34-.06.02-.13.04-.2.04q-.555.12-1.11.21c-.22.05-.45.09-.68.12-.38.06-.75.11-1.13.17-.03.01-.07.01-.11.01-3.06.41-6.25.52-9.52.34-.06.01-.12 0-.17-.01-5.43-.31-11.09-1.41-16.79-3.29-.32-.1-.63-.2-.94-.32-.79-.26-1.58-.55-2.37-.86-.31-.1-.61-.22-.91-.34-1.29-.51-2.58-1.06-3.87-1.66q-1.875-.84-3.72-1.8c-2.14-1.1-4.26-2.32-6.36-3.63-4.21-2.64-8.32-5.7-12.25-9.18a93.4 93.4 0 0 1-10.49-10.89c-.88-1.09-1.74-2.18-2.56-3.29-.41-.56-.82-1.11-1.21-1.67-.78-1.12-1.54-2.24-2.26-3.37s-1.41-2.27-2.06-3.42c-6.28-11.01-9.38-22.5-8.92-32.86.01-.45.04-.89.07-1.33.01-.09.01-.17.02-.25.03-.38.07-.76.11-1.14.02-.2.04-.4.07-.6 0-.06.01-.13.02-.19 0-.02.01-.05.02-.07.12-.73.66-1.33 1.38-1.51.44-.11.87-.22 1.32-.31.02-.01.05-.01.08-.02.36-.08.73-.16 1.1-.23.39-.07.79-.14 1.19-.21.31-.05.63-.1.95-.14.25-.04.51-.07.76-.1.15-.02.3-.04.44-.05.4-.05.81-.09 1.22-.13a62 62 0 0 1 2.98-.17q1.215-.038 2.458-.015 1.24.022 2.502.105c.05 0 .1 0 .15.01.56.03 1.12.08 1.69.13.6.06 1.2.12 1.8.2 14.27 1.78 29.8 8.82 43.26 20.72 19.68 17.4 29.57 40.45 27.21 59.02" class="secondary"/><path d="M45.414 38.578v.04a1.9 1.9 0 0 1-1.13 1.49c-.02.01-.04.01-.06.02-.07.03-.14.05-.21.07-.09.02-.18.05-.28.06-.49.12-.99.24-1.49.34-.06.02-.13.04-.2.04q-.555.12-1.11.21c-.22.05-.45.09-.68.12-.38.06-.749.11-1.129.17-.03.01-.071.01-.111.01-3.06.41-6.25.53-9.52.34-.06.01-.119 0-.169-.01-5.43-.3-11.091-1.41-16.791-3.29-.32-.1-.63-.2-.94-.32-.79-.26-1.58-.55-2.37-.86-.31-.1-.61-.22-.91-.34-1.29-.51-2.58-1.06-3.87-1.66q-1.875-.84-3.72-1.8-3.21-1.65-6.36-3.63c-4.21-2.64-8.32-5.7-12.25-9.18a93 93 0 0 1-7.73-7.67c-.96-1.06-1.88-2.14-2.76-3.22a94 94 0 0 1-2.56-3.29c-.41-.56-.82-1.11-1.21-1.67-.79-1.12-1.54-2.24-2.26-3.37a76 76 0 0 1-2.06-3.42c-6.28-11.01-9.38-22.5-8.92-32.86.01-.45.04-.89.07-1.33.01-.09.01-.17.02-.25.03-.38.07-.76.11-1.14.02-.2.04-.4.07-.6 0-.06.01-.13.02-.19 0-.02.01-.05.02-.07.12-.73.66-1.33 1.38-1.51.44-.11.87-.22 1.32-.31.02-.01.05-.01.08-.02.36-.08.73-.16 1.1-.23.39-.07.79-.14 1.19-.21.31-.05.63-.1.95-.14.25-.04.51-.07.76-.1.15-.02.3-.04.44-.05.4-.05.81-.09 1.22-.13a62 62 0 0 1 2.98-.17c1.63-.05 3.28-.02 4.96.09.05 0 .1 0 .15.01.56.03 1.12.08 1.69.13.6.06 1.2.12 1.8.2.98.12 1.72.98 1.68 1.97-.77 17.89 9.091 39.12 27.501 55.42 12.37 10.93 26.45 17.76 39.73 20.18a1.917 1.917 0 0 1 1.559 2.13" class="secondary" opacity=".5" style="mix-blend-mode:multiply" transform="translate(138.601 167.607)"/></g><path fill="none" stroke="#121331" stroke-linecap="round" stroke-linejoin="round" stroke-width="7" d="M18.042-20.401c20.119 17.793 30.009 41.48 27.036 60.267-18.283 5.248-43-1.672-63.119-19.465s-30.01-41.48-27.037-60.267c18.283-5.248 43.001 1.672 63.12 19.465" class="primary" style="display:none" transform="translate(139.48 168.246)"/><g fill="none" stroke="#2CA58D" stroke-linecap="round" stroke-linejoin="round" stroke-width="7" style="display:none"><path d="M146.486 173.285c16.896 9.023 52.082 38.943 60.918 87.07 1.673 9.113 2.099 17.735 1.769 25.645-.984-10.773-1.434-31.96 8.536-55.633 4.167-9.894 9.323-17.426 25.375-37.395 11.157-13.879 26.676-32.569 46.26-54.292" class="secondary"/><path stroke-opacity=".5" d="M-71.429-39.055c16.896 9.023 52.082 38.943 60.918 87.07 1.673 9.113 2.099 17.735 1.769 25.645-.984-10.773-1.434-31.96 8.536-55.633C3.961 8.133 9.117.601 25.169-19.368c11.157-13.879 26.676-32.569 46.26-54.292" class="secondary" style="mix-blend-mode:multiply" transform="translate(217.915 212.34)"/></g><path class="quaternary" style="display:none"/><g fill="#2CA58D" style="display:block"><path d="M325.393 155.554c-17.84 20.16-39.98 32.83-60.67 36.56v.01c-.13.02-.26.05-.39.07-.41.07-.81.14-1.21.2-.54.09-1.07.17-1.6.24-.25.04-.51.07-.77.1-.56.08-1.11.14-1.67.2-.07.01-.14.02-.22.02-3.9.39-7.72.45-11.43.17-.39-.03-.78-.06-1.17-.1-1.16-.12-2.29-.26-3.42-.44-7.19-25.04 2.29-58.89 26.66-86.44v-.01q3.015-3.42 6.21-6.54c20.85-20.55 46.27-31.6 68.23-31.18.32.01.64.02.97.02.46.02.92.04 1.38.07.39.02.78.05 1.17.08.33.02.65.05.98.08.54.05 1.08.11 1.61.18.66.09 1.25.38 1.69.82.41.39.7.89.84 1.46 6.14 24.82-3.47 57.61-27.19 84.43" class="secondary"/><path d="M54.622-59.69c-20.56 3.83-42.52 16.46-60.23 36.48-24.22 27.38-33.73 60.98-26.79 85.97v.01c-.13.02-.26.05-.39.07-.41.07-.81.14-1.21.2-.54.09-1.07.17-1.6.24-.25.04-.51.07-.77.1-.56.08-1.11.14-1.67.2-.07.01-.14.02-.22.02-3.89.4-7.72.46-11.43.17-.39-.03-.78-.06-1.17-.1a55 55 0 0 1-3.42-.43v-.01c-7.19-25.04 2.29-58.89 26.66-86.44v-.01q3.03-3.42 6.21-6.54c20.86-20.55 46.27-31.59 68.23-31.18.32.01.64.02.97.02.46.02.92.04 1.38.07.39.02.78.05 1.17.08.33.02.65.05.98.08.54.05 1.08.11 1.61.18.66.09 1.25.38 1.69.82" class="secondary" opacity=".5" style="mix-blend-mode:multiply" transform="translate(297.121 129.354)"/></g><path fill="none" stroke="#121331" stroke-linecap="round" stroke-linejoin="round" stroke-width="7" d="M27.941 24.71C3.572 52.265-28.87 65.812-54.601 61.74c-7.188-25.04 2.291-58.895 26.66-86.45C-3.572-52.266 28.87-65.812 54.601-61.74c7.188 25.04-2.291 58.894-26.66 86.45" class="primary" style="display:block" transform="translate(297.685 131.231)"/><g fill="#2CA58D" style="display:block"><path d="M184.174 207.294c-.055.42-.108.829-.182 1.238-.32.087-.64.175-.962.241-.02.01-.04.01-.06.02-.16.049-.331.088-.491.126-.491.115-.992.23-1.493.326a.6.6 0 0 1-.2.038q-.555.114-1.112.2c-.22.048-.452.086-.681.113-.38.057-.752.104-1.132.16-.03.01-.07.01-.11.01-3.063.382-6.253.463-9.522.253a.5.5 0 0 1-.17-.012c-5.428-.36-11.077-1.511-16.76-3.443a16 16 0 0 1-.937-.33 46 46 0 0 1-2.362-.88c-.309-.104-.607-.227-.906-.349a96 96 0 0 1-3.855-1.695 77 77 0 0 1-3.704-1.834 86 86 0 0 1-6.327-3.688 93 93 0 0 1-12.165-9.29 94 94 0 0 1-7.66-7.741 82 82 0 0 1-2.73-3.246 98 98 0 0 1-2.53-3.313c-.405-.565-.809-1.118-1.194-1.681a99 99 0 0 1-2.23-3.39 82 82 0 0 1-2.028-3.44c-6.18-11.066-9.175-22.584-8.62-32.939.015-.45.048-.89.082-1.33.011-.09.012-.17.023-.25.033-.378.077-.758.12-1.138.022-.2.043-.4.076-.6 0-.06.01-.13.021-.19 0-.02.01-.05.021-.07a1.87 1.87 0 0 1 1.394-1.497c.441-.106.871-.211 1.322-.297.02-.01.05-.01.08-.02.361-.077.732-.153 1.103-.22l1.192-.199c.31-.047.631-.094.95-.131.252-.038.511-.066.761-.093.15-.019.3-.037.44-.046.401-.046.812-.083 1.222-.12a61 61 0 0 1 2.981-.142q1.217-.026 2.459.007 1.24.035 2.5.129c.05 0 .1 0 .15.01.56.036 1.12.09 1.689.146q.9.098 1.798.217c14.253 1.91 29.718 9.091 43.069 21.113 19.52 17.58 29.2 40.72 26.67 59.267" class="secondary"/><path d="m72.363 114.873-.031.025a1.9 1.9 0 0 1-1.868.075c-.02-.009-.034-.025-.054-.034a2 2 0 0 1-.188-.117c-.073-.057-.153-.107-.224-.178a37 37 0 0 1-1.21-.934.6.6 0 0 1-.158-.129 22 22 0 0 1-.867-.723 8 8 0 0 1-.525-.449c-.288-.255-.562-.509-.85-.764a.4.4 0 0 1-.078-.078 50 50 0 0 1-6.315-7.133.5.5 0 0 1-.1-.137c-3.221-4.382-5.962-9.457-8.135-15.052a15 15 0 0 1-.351-.929 46 46 0 0 1-.842-2.376c-.12-.303-.218-.611-.317-.918-.426-1.32-.802-2.671-1.179-4.043a77 77 0 0 1-.975-4.016 86 86 0 0 1-1.242-7.217 93 93 0 0 1-.702-15.292c.131-3.71.49-7.325 1.006-10.843.208-1.415.458-2.811.731-4.177.275-1.38.583-2.736.911-4.068.172-.673.34-1.338.52-1.996a85 85 0 0 1 1.165-3.887 82 82 0 0 1 1.33-3.764C56.321 13.872 63.219 4.173 71.508-2.058c.354-.278.712-.534 1.071-.791.076-.049.138-.101.206-.144.312-.218.63-.428.949-.639.167-.112.334-.224.508-.328a1 1 0 0 1 .159-.105.2.2 0 0 1 .067-.029 1.87 1.87 0 0 1 2.043.105c.365.27.723.532 1.079.822.02.009.039.032.066.049.291.227.588.462.877.703.302.256.61.521.918.785.236.208.478.423.712.644.19.168.379.349.561.523.111.103.221.206.318.308.293.277.584.568.876.859a61 61 0 0 1 2.026 2.192 51 51 0 0 1 3.084 3.886c.032.039.064.077.088.122.333.451.65.915.974 1.387.335.501.67 1.003.99 1.517.53.833.338 1.953-.453 2.549-14.299 10.779-24.441 31.887-25.294 56.461-.572 16.497 3.174 31.67 9.682 43.496.495.9.21 2.017-.652 2.559" class="secondary" opacity=".5" style="mix-blend-mode:multiply" transform="rotate(-50 227.325 41.173)"/></g><path fill="none" stroke="#121331" stroke-linecap="round" stroke-linejoin="round" stroke-width="7" d="M18.042-20.401c20.119 17.793 30.009 41.48 27.036 60.267-18.283 5.248-43-1.672-63.119-19.465s-30.01-41.48-27.037-60.267c18.283-5.248 43.001 1.672 63.12 19.465" class="primary" style="display:block" transform="translate(139.48 168.246)"/><path fill="none" stroke="#121331" stroke-linecap="round" stroke-linejoin="round" stroke-width="7" d="M-71.429-39.055c16.896 9.023 52.082 38.943 60.918 87.07 1.673 9.113 2.099 17.735 1.769 25.645-.984-10.773-1.434-31.96 8.536-55.633C3.961 8.133 9.117.601 25.169-19.368c11.157-13.879 26.676-32.569 46.26-54.292" class="primary" style="display:block" transform="translate(217.915 212.34)"/><g fill="#B26836" style="display:block"><path d="M336.529 360.815H79.041c-1.757 0-3.115-1.501-2.991-3.253 1.669-23.562 21.319-42.167 45.315-42.167a45.2 45.2 0 0 1 20.628 4.954c1.379.705 3.064.269 3.895-1.038 13.006-20.447 35.866-34.006 61.897-34.006s48.89 13.559 61.896 34.005c.832 1.307 2.517 1.745 3.897 1.039a45.2 45.2 0 0 1 20.627-4.954c23.996 0 43.646 18.605 45.315 42.167.124 1.752-1.234 3.253-2.991 3.253" class="tertiary"/><path d="M82.012-30.29c-1.53-.09-3.08-.13-4.63-.13-30.067 0-56.444 15.742-71.356 39.432-.83 1.318-2.536 1.749-3.917 1.029A51.9 51.9 0 0 0-21.948 4.17c-22.28 0-41.3 13.95-48.8 33.59h-8.264c-1.757 0-3.116-1.501-2.992-3.253C-80.336 10.935-60.684-7.67-36.688-7.67a45.16 45.16 0 0 1 20.626 4.964c1.379.706 3.066.269 3.897-1.039C.841-24.201 23.701-37.76 49.732-37.76c11.58 0 22.54 2.68 32.28 7.47" class="tertiary" opacity=".5" style="mix-blend-mode:multiply" transform="translate(158.053 323.06)"/></g><path fill="none" stroke="#121331" stroke-linecap="round" stroke-linejoin="round" stroke-width="7" d="M131.85 37.755h-263.7c0-25.08 20.34-45.42 45.43-45.42 8.42 0 16.31 2.3 23.07 6.3 12.71-21.77 36.32-36.39 63.35-36.39s50.64 14.62 63.35 36.39c6.76-4 14.65-6.3 23.07-6.3 25.09 0 45.43 20.34 45.43 45.42" class="primary" style="display:block" transform="translate(208 323.755)"/><path fill="none" class="tertiary" style="display:none"/><path fill="none" class="tertiary" style="display:none"/><path fill="none" class="tertiary" style="display:none"/><path fill="none" class="tertiary" style="display:none"/><path fill="none" stroke="#121331" stroke-linecap="round" stroke-linejoin="round" stroke-width="7" d="M-71.429-39.055c16.896 9.023 52.082 38.943 60.918 87.07 1.673 9.113 2.099 17.735 1.769 25.645-.984-10.773-1.434-31.96 8.536-55.633C3.961 8.133 9.117.601 25.169-19.368c11.157-13.879 26.676-32.569 46.26-54.292" class="primary" style="display:none" transform="translate(217.915 212.34)"/><path fill="none" class="primary" style="display:none"/><path fill="none" class="primary" style="display:none"/><path fill="none" class="primary" style="display:none"/><path fill="none" class="primary" style="display:none"/><path fill="none" class="primary" style="display:none"/></g><g clip-path="url(#g)" style="display:none"><path class="secondary" style="display:none"/><g mask="url(#h)" style="mix-blend-mode:multiply;display:none"><path class="secondary"/></g><path fill="none" class="primary" style="display:none"/><path class="secondary" style="display:none"/><g mask="url(#i)" style="mix-blend-mode:multiply;display:none"><path class="secondary"/></g><path fill="none" class="primary" style="display:none"/><path fill="none" class="primary" style="display:none"/><g style="display:none"><path class="tertiary"/><path class="tertiary" style="mix-blend-mode:multiply"/></g><path fill="none" class="primary" style="display:none"/></g></g></svg>